<?xml version="1.0" encoding="utf-8"?>
<!-- Generator: Adobe Illustrator 16.0.3, SVG Export Plug-In . SVG Version: 6.00 Build 0)  -->
<!DOCTYPE svg PUBLIC "-//W3C//DTD SVG 1.1//EN" "http://www.w3.org/Graphics/SVG/1.1/DTD/svg11.dtd">
<svg version="1.1" id="Layer_1" xmlns="http://www.w3.org/2000/svg" xmlns:xlink="http://www.w3.org/1999/xlink" x="0px" y="0px"
	 width="1200px" height="1200px" viewBox="0 0 1200 1200" enable-background="new 0 0 1200 1200" xml:space="preserve">
<g>
	<g>
		<path fill="none" d="M937.929,583.799L937.929,583.799c-53.855-70.031-132.152-123.951-223.435-156.207
			C805.775,459.848,884.072,513.77,937.929,583.799z"/>
		<path fill="none" d="M685.25,418.134c9.883,2.909,19.635,6.063,29.244,9.459C704.885,424.197,695.133,421.043,685.25,418.134z"/>
		<path fill="#E87966" d="M558.217,689.947l157.665-157.664c4.345-4.35,11.4-4.35,15.739,0c4.353,4.344,4.353,11.393,0,15.738
			L592.458,687.189c11.331-1.014,23.098-2.155,35.366-3.455l110.842-110.84c4.343-4.347,11.395-4.347,15.739,0
			c4.347,4.347,4.347,11.395,0,15.738l-90.967,90.966c13.048-1.707,25.562-3.593,37.545-5.634l42.634-42.633
			c4.343-4.349,11.395-4.349,15.739,0c4.347,4.347,4.347,11.393,0,15.739l-19.34,19.342c17.927-3.891,34.465-8.099,49.68-12.485
			c106.49-30.698,148.219-70.117,148.232-70.129c-53.857-70.029-132.154-123.951-223.437-156.205
			c-9.607-3.396-19.359-6.551-29.244-9.459C630.894,402.139,572.591,393.6,512.565,393.6c-72.868,0-143.183,12.614-207.003,35.838
			c14.71,16.158,41.267,49.73,57.055,96.238c13.876,40.865,20.672,97.034-4.664,161.409
			C374.816,690.267,434.627,698.771,558.217,689.947z M699.929,500.586c4.349,4.346,4.349,11.393,0,15.738L533.523,682.73
			c-2.17,2.174-5.022,3.26-7.871,3.26c-2.848,0-5.694-1.086-7.87-3.26c-4.347-4.347-4.347-11.395,0-15.739L684.19,500.586
			C688.531,496.238,695.586,496.238,699.929,500.586z M656.674,475.163c4.349,4.346,4.349,11.396,0,15.741L508.098,639.479
			c-2.169,2.173-5.021,3.26-7.87,3.26c-2.847,0-5.695-1.087-7.869-3.26c-4.349-4.347-4.349-11.395,0-15.739l148.574-148.576
			C645.278,470.815,652.329,470.815,656.674,475.163z M487.407,565.299l95.088-95.088c4.345-4.348,11.4-4.348,15.739,0
			c4.349,4.346,4.349,11.395,0,15.738l-95.088,95.09c-2.173,2.173-5.021,3.26-7.87,3.26c-2.847,0-5.699-1.087-7.869-3.26
			C483.061,576.691,483.061,569.645,487.407,565.299z"/>
		<path fill="#FFFFFF" d="M1093.38,461.1c10.443-2.23,18.611,2.291,23.371,9.172c3.031-12.194,4.67-23.019,5.525-30.991
			c-101.753,23.913-133.032,106.524-142.21,145.042c7.351-23.907,21.716-45.713,36.597-65.947
			C1036.395,491.541,1059.807,468.264,1093.38,461.1z"/>
		<path fill="#FFFFFF" d="M617.99,344.997v-59.013c-43.998,10.009-80.979,33.297-106.466,55.151l103.22,3.383
			C616.032,344.56,617.99,344.786,617.99,344.997z"/>
		<path fill="#FFFFFF" d="M1024.971,627.724c30.818,36.266,62.983,71.433,94.639,106.935
			C1100.037,676.514,1060.041,644.856,1024.971,627.724z"/>
		<path fill="#FFFFFF" d="M224.936,579.65c-11.711,0-21.244,9.53-21.244,21.245c0,11.714,9.532,21.241,21.244,21.241
			c11.713,0,21.245-9.527,21.245-21.241C246.181,589.181,236.649,579.65,224.936,579.65z"/>
		<path fill="#FFFFFF" d="M320.842,488.012c-15.114-25.764-31.179-43.255-37.718-49.859
			c-86.593,35.804-159.672,91.756-208.442,162.741c34.775,50.617,81.933,93.568,137.507,127.052
			C349.954,713.896,333.69,554.26,320.842,488.012z M224.936,644.398c-23.988,0-43.504-19.516-43.504-43.505
			s19.517-43.504,43.504-43.504c23.989,0,43.506,19.515,43.506,43.504S248.925,644.398,224.936,644.398z"/>
		<path fill="#E7C2CE" d="M617.99,380.23v-35.233c0-0.209-1.583-0.437-2.872-0.478l-103.22-3.383
			c-13.332,11.432-23.564,22.467-30.894,31.006c10.406-0.502,20.206-0.803,30.72-0.803
			C548.112,371.339,587.991,374.38,617.99,380.23z"/>
		<path fill="#E7C2CE" d="M1116.751,470.271c-4.76-6.881-12.928-11.402-23.371-9.172c-33.573,7.164-56.985,30.441-76.717,57.276
			c-14.881,20.233-29.246,42.041-36.597,65.948c-0.39,1.64-0.742,3.199-1.057,4.674c2.715,0.574,5.634,1.23,8.847,2.043
			C1074.095,581.115,1105.392,515.929,1116.751,470.271z"/>
		<path fill="#E7C2CE" d="M1024.971,627.724c-11.722-5.723-22.892-9.847-32.561-12.769c-6.199,0.758-12.68,1.221-19.392,1.438
			c0.808,8.269,2.075,16.228,3.904,23.803c0.055,0.066,0.106,0.132,0.161,0.198c0.101,0.624,0.268,1.24,0.374,1.862
			c10.56,41.252,36.445,72.025,77.41,91.735c27.107,13.042,54.319,17.91,70.179,19.726c-1.571-6.652-3.398-12.993-5.438-19.059
			C1087.954,699.156,1055.789,663.989,1024.971,627.724z"/>
		<path fill="#DB5F57" d="M937.931,583.797L937.931,583.797c-0.016,0.016-41.744,39.433-148.232,70.131
			c-15.215,4.387-31.753,8.595-49.682,12.485l-75.748,75.748c-2.173,2.173-5.021,3.262-7.87,3.262s-5.699-1.089-7.87-3.262
			c-4.347-4.347-4.347-11.393,0-15.739l52.455-52.457c-11.984,2.041-24.499,3.927-37.545,5.634l-57.609,57.611
			c-2.176,2.175-5.022,3.262-7.87,3.262c-2.849,0-5.699-1.087-7.871-3.262c-4.347-4.345-4.347-11.395,0-15.739l37.734-37.736
			c-12.269,1.3-24.035,2.443-35.366,3.455l-27.239,27.237c-2.173,2.174-5.021,3.261-7.87,3.261c-2.847,0-5.699-1.087-7.873-3.261
			c-4.349-4.347-4.349-11.396,0-15.74l8.741-8.739c-123.59,8.823-183.403,0.319-200.265-2.862
			c-10.725,27.248-27.22,55.966-51.389,85.623c63.559,22.995,133.515,35.479,206.001,35.479
			c182.533,0,349.169-78.913,437.294-206.469c-0.012-0.589-0.055-1.144-0.062-1.736
			C945.996,594.488,942.014,589.107,937.931,583.797z"/>
		<path fill="#E7C2CE" d="M482.057,829.715c22.045,25.228,69.936,69.425,135.933,84.305v-92.461
			c-29.998,5.849-70.159,8.893-106.549,8.893C501.468,830.451,491.93,830.165,482.057,829.715z"/>
		<path fill="#E7C2CE" d="M341.814,533.657c-5.754-17.165-13.229-32.45-20.972-45.646c12.848,66.248,29.112,225.884-108.655,239.936
			c22.802,13.737,47.004,25.892,72.384,36.3C348.476,688.796,367.829,611.259,341.814,533.657z"/>
		<path fill="#DB4446" d="M495.277,584.299c2.849,0,5.697-1.087,7.87-3.26l95.088-95.09c4.349-4.346,4.349-11.394,0-15.738
			c-4.339-4.348-11.395-4.348-15.739,0l-95.088,95.088c-4.347,4.346-4.347,11.393,0,15.74
			C489.577,583.212,492.43,584.299,495.277,584.299z"/>
		<path fill="#DB4446" d="M492.359,639.479c2.174,2.173,5.022,3.26,7.871,3.26s5.699-1.087,7.87-3.26l148.574-148.576
			c4.349-4.346,4.349-11.395,0-15.74c-4.345-4.347-11.395-4.347-15.738,0L492.359,623.739
			C488.012,628.086,488.012,635.134,492.359,639.479z"/>
		<path fill="#DB4446" d="M517.783,682.73c2.174,2.174,5.022,3.26,7.87,3.26c2.847,0,5.697-1.086,7.869-3.26l166.408-166.406
			c4.347-4.346,4.347-11.393,0-15.738c-4.345-4.348-11.4-4.348-15.739,0L517.783,666.991
			C513.435,671.336,513.435,678.384,517.783,682.73z"/>
		<path fill="#DB4446" d="M731.623,532.283c-4.341-4.35-11.395-4.35-15.739,0L558.217,689.947l-8.741,8.739
			c-4.349,4.347-4.349,11.394,0,15.74c2.174,2.174,5.026,3.261,7.873,3.261c2.849,0,5.697-1.087,7.87-3.261l27.239-27.237
			l139.165-139.168C735.974,543.676,735.974,536.627,731.623,532.283z"/>
		<path fill="#DB4446" d="M754.406,572.895c-4.345-4.35-11.395-4.35-15.739,0l-110.842,110.84l-37.734,37.736
			c-4.347,4.345-4.347,11.395,0,15.739c2.172,2.173,5.022,3.26,7.871,3.26c2.848,0,5.694-1.087,7.87-3.26l57.609-57.611
			l90.965-90.966C758.754,584.287,758.754,577.238,754.406,572.895z"/>
		<path fill="#DB4446" d="M759.357,631.334c-4.345-4.349-11.395-4.349-15.739,0l-42.632,42.633l-52.455,52.457
			c-4.347,4.345-4.347,11.393,0,15.739c2.171,2.173,5.023,3.26,7.87,3.26c2.849,0,5.697-1.087,7.87-3.26l75.748-75.75l19.34-19.34
			C763.705,642.727,763.705,635.679,759.357,631.334z"/>
		<path fill="#343539" d="M224.936,557.39c-23.988,0-43.504,19.515-43.504,43.506c0,23.987,19.517,43.505,43.504,43.505
			c23.989,0,43.506-19.518,43.506-43.505C268.442,576.904,248.925,557.39,224.936,557.39z M224.936,622.137
			c-11.711,0-21.244-9.527-21.244-21.241c0-11.715,9.532-21.245,21.244-21.245c11.713,0,21.245,9.53,21.245,21.245
			C246.181,612.609,236.649,622.137,224.936,622.137z"/>
		<path fill="#343539" d="M1030.548,606.164c111.746-39.465,114.933-177.861,114.952-179.477c0.042-3.303-1.39-7.405-3.901-9.548
			c-2.516-2.145-5.856-2.936-9.104-2.378c-121.371,20.774-162.042,113.663-174.293,160.757
			C886.658,479.432,770.99,411.523,638.99,384.436V272.571c0-3.253-1.308-6.344-3.776-8.459c-2.474-2.116-6.316-3.051-9.523-2.539
			c-106.857,16.763-166.235,98.472-175.993,112.836c-168.167,16.287-316.934,97.575-397.901,220.358
			c-2.451,3.717-2.366,8.54,0.087,12.257c52.213,79.175,132.753,141.069,228.419,179.452c1.858,1.574,4.11,2.355,6.376,2.525
			c51.21,19.848,106.646,32.972,164.321,38.471c12.993,18.471,72.313,94.817,175.204,110.956c0.575,0.093,1.151,0.136,1.725,0.136
			c2.638,0,5.169-0.935,7.199-2.673c2.475-2.114,3.862-5.205,3.862-8.457V817.352c131.999-26.263,240.697-90.889,312.581-182.379
			c14.625,84.006,78.634,119.376,127.387,134.164c1.838,0.557,4,1.089,5.793,1.589c1.581,0.442,3.29,0.845,4.831,1.244
			c1.147,0.297,2.396,1.225,3.519,1.5c25.842,6.335,45.043,7.527,45.642,7.527c0.045,0,0.085,0,0.13,0
			c3.254,0,6.351-3.316,8.465-5.795c2.145-2.513,3.06-7.432,2.504-10.688C1134.179,673.018,1077.6,627.911,1030.548,606.164z
			 M511.524,341.135c25.487-21.854,62.468-45.142,106.466-55.151v59.013v35.233c-29.998-5.85-69.785-8.891-106.173-8.891
			c-10.515,0-20.97,0.301-31.376,0.803C487.77,363.602,498.192,352.567,511.524,341.135z M284.571,764.247
			c-25.379-10.408-49.582-22.561-72.384-36.3c-55.572-33.483-102.731-76.437-137.505-127.052
			c48.77-70.987,121.849-126.938,208.44-162.742c6.54,6.604,22.606,24.096,37.718,49.859c7.745,13.196,15.218,28.479,20.972,45.646
			C367.829,611.259,348.476,688.796,284.571,764.247z M617.99,914.02c-65.997-14.878-113.888-59.075-135.933-84.305
			c9.873,0.45,19.411,0.736,29.386,0.736c36.388,0,76.549-3.042,106.549-8.893v92.461H617.99z M512.565,808.188
			c-72.486,0-142.442-12.484-206.001-35.478c24.169-29.659,40.664-58.375,51.389-85.625c25.336-64.375,18.538-120.544,4.664-161.409
			c-15.788-46.508-42.345-80.082-57.055-96.238c63.82-23.224,134.135-35.838,207.003-35.838c60.026,0,118.331,8.539,172.686,24.536
			c9.885,2.909,19.635,6.064,29.244,9.458c91.282,32.254,169.579,86.176,223.437,156.205c4.085,5.311,8.067,10.691,11.867,16.186
			c0.008,0.593,0.051,1.146,0.062,1.734C861.734,729.274,695.096,808.188,512.565,808.188z M980.067,584.322
			c9.178-38.518,40.457-121.129,142.21-145.042c-0.855,7.973-2.494,18.795-5.525,30.991
			c-11.359,45.657-42.656,110.844-128.893,120.77c-3.215-0.812-6.134-1.471-8.847-2.043
			C979.326,587.523,979.679,585.962,980.067,584.322z M1054.868,733.991c-40.963-19.71-66.851-50.483-77.408-91.735
			c-0.105-0.622-0.273-1.238-0.374-1.862c-0.057-0.066-0.106-0.132-0.163-0.198c-1.829-7.575-3.097-15.536-3.904-23.803
			c6.712-0.217,13.192-0.68,19.394-1.438c9.669,2.922,20.837,7.046,32.559,12.769c35.07,17.133,75.068,48.79,94.641,106.935
			c2.039,6.065,3.864,12.406,5.436,19.059C1109.19,751.901,1081.976,747.031,1054.868,733.991z"/>
	</g>
</g>
</svg>
